<?xml version="1.0" encoding="utf-8"?>
<svg version="1.1" id="Layer_1" xmlns="http://www.w3.org/2000/svg" xmlns:xlink="http://www.w3.org/1999/xlink" x="0px" y="0px"
	 viewBox="0 0 136.2 98" style="enable-background:new 0 0 136.2 98;" xml:space="preserve">
<style type="text/css">
	.st0{fill:#6EBED5;}
	.st1{fill:#C5313F;}
	.st2{fill:none;}
	.st3{fill:#091A2E;}
</style>
<g id="a">

	<path class="st3" d="M133.2,92.9L80.9,3c-0.4-0.6-1-0.9-1.7-0.9H56c-0.7,0-1.4,0.4-1.7,1L2.6,92.9c-0.6,0.9-0.3,2.2,0.6,2.8
		C3.5,95.9,3.9,96,4.3,96h24l18.8-4.4l0,0l0.4-0.1l0,0c0.1-0.1,0.2-0.1,0.3-0.2l0,0c0.1-0.1,0.2-0.2,0.3-0.3l0,0
		c0.1-0.1,0.2-0.2,0.2-0.3l19.4-33.7L86.8,90c0.3,0.5,0.7,0.8,1.2,0.9l19.2,4.9h0.1h24.1c1.1,0,2-0.8,2-1.9c0-0.4-0.1-0.8-0.3-1.1
		V92.9z M67.9,28.8l5.7,9.9L66,51.9c-0.1,0.1-0.1,0.1-0.1,0.2L45.4,87.8l-13.5,3.1L67.9,28.8z M89.8,87.3L69.9,53.1l6-10.4
		l27.8,48.1L89.8,87.3z M108.9,91.9L69.6,23.8c-0.4-0.6-1-1-1.7-1l0,0c-0.7,0-1.4,0.4-1.7,1L26.7,91.9h-19L57.2,6H78L128,91.9
		L108.9,91.9z"/>
</g>
</svg>
