<svg xmlns="http://www.w3.org/2000/svg" viewBox="0 0 152 98">
    <defs>
        <style>.cls-1{fill:#6ebed5;}.cls-2{fill:#c5313f;}.cls-3{fill:#091a2e;}</style>
    </defs>
    <g id="a">
        <line class="cls-2" x1="62.24" y1="62" x2="81.28" y2="28.84"/>
        <path class="cls-3"
              d="M118.62,64.2,84.55,5.6A1.31,1.31,0,0,0,83.42,5H68.31a1.3,1.3,0,0,0-1.13.65L33.48,64.2a1.3,1.3,0,0,0,1.13,2H50.27l12.26-2.85h0l.23-.08,0,0a1.32,1.32,0,0,0,.2-.12h0a1,1,0,0,0,.18-.17l0,0a1.43,1.43,0,0,0,.14-.2L75.9,40.83,88.37,62.28a1.27,1.27,0,0,0,.8.61l12.51,3.22.09,0h15.72a1.3,1.3,0,0,0,1.13-2ZM76.05,22.36l3.73,6.48-4.93,8.59a.55.55,0,0,0-.09.14L61.39,60.86l-8.79,2ZM90.34,60.51l-13-22.29,3.89-6.77L99.34,62.82Zm12.42,3L77.18,19.11a1.28,1.28,0,0,0-1.13-.65h0a1.28,1.28,0,0,0-1.12.65L49.22,63.55H36.86l32.2-56H82.67l32.56,56Z"/>
    </g>
    <g id="text">
        <path class="cls-3"
              d="M20.7,89.34a4.12,4.12,0,0,1-3.82-2.61l1.95-1.16c.57,1.07,1.21,1.61,1.93,1.61a1.6,1.6,0,0,0,1-.33,1.08,1.08,0,0,0,.38-.78,1.54,1.54,0,0,0-.27-.83,6.18,6.18,0,0,0-.51-.5L20.54,84c-.64-.53-1.16-1-1.58-1.4a7.27,7.27,0,0,1-.91-1,3,3,0,0,1-.61-1.71,2.84,2.84,0,0,1,.94-2.15,3.31,3.31,0,0,1,2.32-.89,3.42,3.42,0,0,1,1.72.44,4.77,4.77,0,0,1,.85.58,11.11,11.11,0,0,1,.92.91l-1.72,1.49a2.33,2.33,0,0,0-1.77-1.21.93.93,0,0,0-.71.22.66.66,0,0,0-.28.56,1.07,1.07,0,0,0,.16.54c.11.11.31.3.58.54l1.09,1c.52.43.92.78,1.19,1l.4.34A3.66,3.66,0,0,1,24.36,86a3.2,3.2,0,0,1-1,2.44A3.67,3.67,0,0,1,20.7,89.34Z"/>
        <path class="cls-3"
              d="M28.76,89.34a4.11,4.11,0,0,1-3.82-2.61l1.94-1.16c.57,1.07,1.22,1.61,1.94,1.61a1.57,1.57,0,0,0,1-.33,1,1,0,0,0,.38-.78,1.54,1.54,0,0,0-.27-.83,5.79,5.79,0,0,0-.5-.5L28.59,84c-.63-.53-1.16-1-1.57-1.4a7.45,7.45,0,0,1-.92-1,3,3,0,0,1-.61-1.71,2.85,2.85,0,0,1,1-2.15,3.29,3.29,0,0,1,2.32-.89,3.41,3.41,0,0,1,1.71.44,4.15,4.15,0,0,1,.85.58,9.75,9.75,0,0,1,.92.91l-1.71,1.49a2.36,2.36,0,0,0-1.77-1.21,1,1,0,0,0-.72.22.66.66,0,0,0-.28.56,1.09,1.09,0,0,0,.17.54c.11.11.3.3.58.54s.63.57,1.08,1,.92.78,1.2,1l.4.34A3.69,3.69,0,0,1,32.41,86a3.23,3.23,0,0,1-1,2.44A3.7,3.7,0,0,1,28.76,89.34Z"/>
        <path class="cls-3" d="M40.5,76.84v2.32H35.32V82H40.5v2.26H35.32V87H40.5v2.33H33V76.84Z"/>
        <path class="cls-3" d="M51.4,76.84v12.5H49.13l-5.41-8.2v8.2H41.4V76.84h2.27L49,85.09V76.84Z"/>
        <path class="cls-3" d="M61.22,76.84v2.33H57.8V89.34H55.35V79.17H52V76.84Z"/>
        <path class="cls-3"
              d="M68.07,89.34H65.69V76.84h4.57A3.91,3.91,0,0,1,73.11,78a3.84,3.84,0,0,1,1.22,2.85V81a3.82,3.82,0,0,1-1.22,2.84A3.91,3.91,0,0,1,70.26,85H68.07Zm2-6.63A1.69,1.69,0,0,0,71.76,81a1.8,1.8,0,0,0-.49-1.28A1.66,1.66,0,0,0,70,79.16h-2v3.55Z"/>
        <path class="cls-3"
              d="M83.5,89.34H80.93l-2.27-4.27H77.27v4.27H74.88V76.84h4.59a4,4,0,0,1,4,4V81a4,4,0,0,1-2.44,3.74Zm-4.27-6.6a1.67,1.67,0,0,0,1.24-.54A1.74,1.74,0,0,0,81,80.92a1.62,1.62,0,0,0-.52-1.24,1.68,1.68,0,0,0-1.24-.51h-2v3.57Z"/>
        <path class="cls-3"
              d="M89.55,89.34a6,6,0,0,1-4.45-1.83,6.22,6.22,0,0,1-1.78-4.39,6.29,6.29,0,0,1,3.1-5.45,6.27,6.27,0,0,1,3.13-.83,5.91,5.91,0,0,1,4.33,1.83,6.11,6.11,0,0,1,1.85,4.45,6.1,6.1,0,0,1-6.18,6.22Zm0-2.16a3.58,3.58,0,0,0,1.47-.3A4.15,4.15,0,0,0,92.27,86a3.85,3.85,0,0,0,1.16-2.89,4,4,0,0,0-1.16-2.89,3.68,3.68,0,0,0-2.78-1.17,3.63,3.63,0,0,0-2.77,1.17,3.94,3.94,0,0,0-1.12,2.89,3.95,3.95,0,0,0,4,4.06Z"/>
        <path class="cls-3" d="M104.35,76.84v2.33h-3.42V89.34H98.48V79.17H95.12V76.84Z"/>
        <path class="cls-3"
              d="M109.43,89.34A6,6,0,0,1,105,87.51a6.26,6.26,0,0,1-1.78-4.39,6.27,6.27,0,0,1,3.11-5.45,6.24,6.24,0,0,1,3.13-.83,5.91,5.91,0,0,1,4.32,1.83,6.07,6.07,0,0,1,1.85,4.45,6.1,6.1,0,0,1-6.17,6.22Zm0-2.16a3.58,3.58,0,0,0,1.47-.3,4.15,4.15,0,0,0,1.25-.87,3.89,3.89,0,0,0,1.16-2.89,4.05,4.05,0,0,0-1.16-2.89,3.89,3.89,0,0,0-5.56,0,3.94,3.94,0,0,0-1.11,2.89,3.95,3.95,0,0,0,4,4.06Z"/>
        <path class="cls-3"
              d="M122.53,87.2a4,4,0,0,0,1.86-.46,4.08,4.08,0,0,0,.78-.52,4,4,0,0,0,.63-.67l1.62,1.39a7,7,0,0,1-1,1,6,6,0,0,1-1.16.76,5.76,5.76,0,0,1-1.32.48,6.17,6.17,0,0,1-1.44.17,6.1,6.1,0,0,1-1.66-.22,6.28,6.28,0,0,1-2.76-1.61,6.14,6.14,0,0,1-1.61-2.76,6.37,6.37,0,0,1,0-3.32,6.14,6.14,0,0,1,1.61-2.76,6.06,6.06,0,0,1,1.27-1,6.36,6.36,0,0,1,1.49-.63,6.1,6.1,0,0,1,1.66-.22A5.68,5.68,0,0,1,124,77a5.76,5.76,0,0,1,1.32.48,6.39,6.39,0,0,1,1.16.75,7,7,0,0,1,1,1l-1.62,1.4a4,4,0,0,0-1.41-1.2,4.29,4.29,0,0,0-.89-.33,3.85,3.85,0,0,0-1-.12,4.07,4.07,0,0,0-1.59.32,4.25,4.25,0,0,0-1.31.88,4.19,4.19,0,0,0-.88,1.31,4,4,0,0,0,0,3.19,4.1,4.1,0,0,0,2.19,2.19A3.9,3.9,0,0,0,122.53,87.2Z"/>
        <path class="cls-3"
              d="M132.87,89.34a6,6,0,0,1-4.46-1.83,6.25,6.25,0,0,1-1.77-4.39,6.23,6.23,0,0,1,3.1-5.45,6.24,6.24,0,0,1,3.13-.83,6,6,0,0,1,4.33,1.83A6.1,6.1,0,0,1,139,83.12a6.08,6.08,0,0,1-6.17,6.22Zm0-2.16a3.58,3.58,0,0,0,1.47-.3,4.15,4.15,0,0,0,1.25-.87,3.89,3.89,0,0,0,1.16-2.89,4.05,4.05,0,0,0-1.16-2.89,3.68,3.68,0,0,0-2.78-1.17A3.61,3.61,0,0,0,130,80.23a4.24,4.24,0,0,0,.33,6.06A3.85,3.85,0,0,0,132.87,87.18Z"/>
        <path class="cls-3" d="M142,76.84V87.07h4.61v2.27h-6.93V76.84Z"/>
        <polygon class="cls-3"
                 points="13.14 79.28 12.27 77.01 12.21 76.84 9.82 76.84 5 89.34 7.44 89.34 8.49 86.78 9.36 84.46 11.05 80.16 11.92 82.43 12.73 84.46 13.61 86.78 14.53 89.34 17.04 89.34 13.14 79.28"/>
    </g>
</svg>